<?xml version="1.0" encoding="UTF-8"?>
<!-- Generated by Pixelmator Pro 3.5.11 -->
<svg width="100" height="180" viewBox="0 0 100 180" xmlns="http://www.w3.org/2000/svg">
    <path id="Ellipse" fill="#dbdce1" fill-rule="evenodd" stroke="none" d="M 32.115234 78.960938 C 22.166393 72.913567 15.521484 61.971931 15.521484 49.478516 C 15.521484 30.437088 30.958578 15 50 15 C 69.041428 15 84.478516 30.437088 84.478516 49.478516 C 84.478516 61.971931 77.833611 72.913567 67.884766 78.960938 C 68.946007 76.269592 69.537109 73.294029 69.537109 70.164063 C 69.537109 59.665482 62.907513 50.898666 54.072266 48.804688 C 59.055981 47.109451 62.642578 42.392776 62.642578 36.835938 C 62.642578 29.85408 56.981853 24.193359 50 24.193359 C 43.018147 24.193359 37.357422 29.85408 37.357422 36.835938 C 37.357422 42.392776 40.944019 47.109451 45.927734 48.804688 C 37.092487 50.898666 30.462891 59.665482 30.462891 70.164063 C 30.462891 73.294029 31.053993 76.269592 32.115234 78.960938 Z"/>
    <path id="Abgerundetes-Rechteck" fill="#dbdce1" fill-rule="evenodd" stroke="none" d="M 15 106 C 15 107.104568 15.895431 108 17 108 L 83 108 C 84.104568 108 85 107.104568 85 106 L 85 102 C 85 100.895432 84.104568 100 83 100 L 17 100 C 15.895431 100 15 100.895432 15 102 Z"/>
    <path id="Abgerundetes-Rechteck-Kopie" fill="#dbdce1" fill-rule="evenodd" stroke="none" d="M 15 115.5 C 15 116.32843 15.671573 117 16.5 117 L 83.5 117 C 84.32843 117 85 116.32843 85 115.5 C 85 114.67157 84.32843 114 83.5 114 L 16.5 114 C 15.671573 114 15 114.67157 15 115.5 Z"/>
    <path id="Abgerundetes-Rechteck-Kopie-2" fill="#dbdce1" fill-rule="evenodd" stroke="none" d="M 15 122.5 C 15 123.32843 15.671573 124 16.5 124 L 83.5 124 C 84.32843 124 85 123.32843 85 122.5 C 85 121.67157 84.32843 121 83.5 121 L 16.5 121 C 15.671573 121 15 121.67157 15 122.5 Z"/>
    <path id="Abgerundetes-Rechteck-Kopie-3" fill="#dbdce1" fill-rule="evenodd" stroke="none" d="M 15 129.5 C 15 130.32843 15.671573 131 16.5 131 L 83.5 131 C 84.32843 131 85 130.32843 85 129.5 C 85 128.67157 84.32843 128 83.5 128 L 16.5 128 C 15.671573 128 15 128.67157 15 129.5 Z"/>
    <path id="Abgerundetes-Rechteck-Kopie-6" fill="#dbdce1" fill-rule="evenodd" stroke="none" d="M 27 142.5 C 27 143.32843 27.671574 144 28.5 144 L 55.5 144 C 56.328426 144 57 143.32843 57 142.5 C 57 141.67157 56.328426 141 55.5 141 L 28.5 141 C 27.671574 141 27 141.67157 27 142.5 Z"/>
    <path id="Abgerundetes-Rechteck-Kopie-7" fill="#dbdce1" fill-rule="evenodd" stroke="none" d="M 27 152.5 C 27 153.32843 27.671574 154 28.5 154 L 55.5 154 C 56.328426 154 57 153.32843 57 152.5 C 57 151.67157 56.328426 151 55.5 151 L 28.5 151 C 27.671574 151 27 151.67157 27 152.5 Z"/>
    <path id="Abgerundetes-Rechteck-Kopie-8" fill="#dbdce1" fill-rule="evenodd" stroke="none" d="M 27 162.5 C 27 163.32843 27.671574 164 28.5 164 L 55.5 164 C 56.328426 164 57 163.32843 57 162.5 C 57 161.67157 56.328426 161 55.5 161 L 28.5 161 C 27.671574 161 27 161.67157 27 162.5 Z"/>
    <path id="path1" fill="#dbdce1" fill-rule="evenodd" stroke="none" d="M 18 142.5 C 18 143.880707 19.119287 145 20.5 145 C 21.880713 145 23 143.880707 23 142.5 C 23 141.119293 21.880713 140 20.5 140 C 19.119287 140 18 141.119293 18 142.5 Z"/>
    <path id="Abgerundetes-Rechteck-Kopie-4" fill="#dbdce1" fill-rule="evenodd" stroke="none" d="M 18 152.5 C 18 153.880707 19.119287 155 20.5 155 C 21.880713 155 23 153.880707 23 152.5 C 23 151.119293 21.880713 150 20.5 150 C 19.119287 150 18 151.119293 18 152.5 Z"/>
    <path id="Abgerundetes-Rechteck-Kopie-5" fill="#dbdce1" fill-rule="evenodd" stroke="none" d="M 18 162.5 C 18 163.880707 19.119287 165 20.5 165 C 21.880713 165 23 163.880707 23 162.5 C 23 161.119293 21.880713 160 20.5 160 C 19.119287 160 18 161.119293 18 162.5 Z"/>
</svg>
