<svg
  xmlns="http://www.w3.org/2000/svg"
  xmlns:xlink="http://www.w3.org/1999/xlink"
  width="32"
  height="32"
  viewBox="0 0 180 180"
>
  <rect x="0" y="0" width="180" height="180" fill="#060d1a" rx="8" ry="8" />

  <svg
    width="110.5"
    height="69.1"
    viewBox="0 0 110.5 69.1"
    xmlns="http://www.w3.org/2000/svg"
  >
    <g stroke-linecap="round" fill-rule="evenodd" style="fill: #dbdce1">
      <path
        d="M 54.1 69.1 L 40.7 69.1 L 36.9 53 L 16.9 53 L 13.1 69.1 L 0 69.1 L 19.2 0 L 35 0 L 54.1 69.1 Z M 95.3 0 L 108.9 0 L 87.7 31.3 L 110.5 69.1 L 95.8 69.1 L 74.1 32.2 L 95.3 0 Z M 60.7 0 L 73.7 0 L 73.7 69.1 L 60.7 69.1 L 60.7 0 Z M 26.9 9.9 L 19.1 43.2 L 34.7 43.2 L 26.9 9.9 Z"
      />
    </g>
  </svg>
</svg>