<?xml version="1.0" encoding="UTF-8"?>
<!-- Generated by Pixelmator Pro 3.5.11 -->
<svg width="100" height="180" viewBox="0 0 100 180" xmlns="http://www.w3.org/2000/svg">
    <g id="Geneigt">
        <path id="Pfad" fill="none" stroke="#dbdce1" stroke-linecap="round" stroke-linejoin="round" d="M 10 165 L 10 155 L 20 156.219513 L 20 146.219513 L 30 147.439026 L 30 157.439026 L 40 158.658539 L 40 168.658539 L 10 165 Z"/>
        <path id="path1" fill="none" stroke="#dbdce1" stroke-linecap="round" stroke-linejoin="round" d="M 30 147.439026 L 50 149.878052 L 50 159.878052 L 60 161.097565 L 60 171.097565 L 40 168.658539 L 40 158.658539 L 30 157.439026 L 30 147.439026 Z"/>
        <path id="path2" fill="none" stroke="#dbdce1" stroke-linecap="round" stroke-linejoin="round" d="M 50 139.878052 L 60 141.097565 L 60 151.097565 L 70 152.317078 L 70 172.317078 L 60 171.097565 L 60 161.097565 L 50 159.878052 L 50 139.878052 Z"/>
        <path id="path3" fill="none" stroke="#dbdce1" stroke-linecap="round" stroke-linejoin="round" d="M 90 164.756104 L 90 174.756104 L 70 172.317078 L 70 142.317078 L 80 143.536591 L 80 163.536591 L 90 164.756104 Z"/>
        <path id="path4" fill="none" stroke="#dbdce1" stroke-linecap="round" stroke-linejoin="round" d="M 10 135 L 40 138.658539 L 40 148.658539 L 20 146.219513 L 20 156.219513 L 10 155 L 10 135 Z"/>
        <path id="path5" fill="none" stroke="#dbdce1" stroke-linecap="round" stroke-linejoin="round" d="M 30 127.439026 L 60 131.097565 L 60 141.097565 L 50 139.878052 L 50 149.878052 L 40 148.658539 L 40 138.658539 L 30 137.439026 L 30 127.439026 Z"/>
        <path id="path6" fill="none" stroke="#dbdce1" stroke-linecap="round" stroke-linejoin="round" d="M 80 123.536591 L 90 124.756104 L 90 164.756104 L 80 163.536591 L 80 123.536591 Z"/>
        <path id="path7" fill="none" stroke="#dbdce1" stroke-linecap="round" stroke-linejoin="round" d="M 10 135 L 12 133.243912 L 30 135.439026 L 30 127.439026 L 32 125.68293 L 62 129.341461 L 62 149.341461 L 70 150.317078 L 70 142.317078 L 72 140.560974 L 80 141.536591 L 80 123.536591 L 82 121.780487 L 92 123 L 92 173 L 90 174.756104"/>
        <path id="path8" fill="none" stroke="#dbdce1" stroke-linecap="round" stroke-linejoin="round" d="M 60 131.097565 L 62 129.341461"/>
        <path id="path9" fill="none" stroke="#dbdce1" stroke-linecap="round" stroke-linejoin="round" d="M 60 151.097565 L 62 149.341461"/>
        <path id="path10" fill="none" stroke="#dbdce1" stroke-linecap="round" stroke-linejoin="round" d="M 90 124.756096 L 92 123"/>
        <path id="path11" fill="none" stroke="#dbdce1" stroke-linecap="round" stroke-linejoin="round" d="M 90 164.756104 L 92 163"/>
        <path id="path12" fill="none" stroke="#dbdce1" stroke-linecap="round" stroke-linejoin="round" d="M 40 28.658539 L 50 29.878052 L 50 39.878052 L 60 41.097565 L 60 22.097565 L 50 20.878052 L 50 9.878052 L 40 8.658539 L 40 28.658539 Z"/>
        <path id="path13" fill="none" stroke="#dbdce1" stroke-linecap="round" stroke-linejoin="round" d="M 40 8.658539 L 42 6.902435 L 52 8.121948 L 52 19.121948 L 62 20.341461 L 62 39.341461 L 60 41.097565"/>
        <path id="path14" fill="none" stroke="#dbdce1" stroke-linecap="round" stroke-linejoin="round" d="M 60 22.097565 L 62 20.341461"/>
        <path id="path15" fill="none" stroke="#dbdce1" stroke-linecap="round" stroke-linejoin="round" d="M 50 20.878052 L 52 19.121948"/>
    </g>
</svg>
